<svg t="1608383269102" class="icon" viewBox="0 0 1024 1024" version="1.1" xmlns="http://www.w3.org/2000/svg" p-id="8209" width="32" height="32"><path d="M512 62C263.5 62 62 263.5 62 512s201.5 450 450 450 450-201.5 450-450S760.5 62 512 62z m0 810c-198.8 0-360-161.2-360-360s161.2-360 360-360 360 161.2 360 360-161.2 360-360 360z" fill="#bb1900" p-id="8210"></path><path d="M692.3 331.7c-17.5-17.5-46.1-17.5-63.6 0L512 448.4 395.3 331.7c-17.5-17.5-46.1-17.5-63.6 0s-17.5 46.1 0 63.6L448.4 512 331.7 628.7c-17.5 17.5-17.5 46.1 0 63.6s46.1 17.5 63.6 0L512 575.6l116.7 116.7c17.5 17.5 46.1 17.5 63.6 0s17.5-46.1 0-63.6L575.6 512l116.7-116.7c17.5-17.5 17.5-46.1 0-63.6z" fill="#bb1900" p-id="8211"></path></svg>